/* XPM */
static char *_088d2ddf3ff4f00b40e77045f6d1c7bTXUylLXsEWbhzzeg[] = {
/* columns rows colors chars-per-pixel */
"64 64 167 2 ",
"   c #050401",
".  c #080502",
"X  c #090802",
"o  c #1D150D",
"O  c #21180D",
"+  c #221A12",
"@  c #251D18",
"#  c #232215",
"$  c #252218",
"%  c #2A251B",
"&  c #2B2A1D",
"*  c #322314",
"=  c #312418",
"-  c #35281B",
";  c #3C2B1B",
":  c #2D2C20",
">  c #312C22",
",  c #3A2C22",
"<  c #303023",
"1  c #3C3124",
"2  c #353028",
"3  c #3D3328",
"4  c #3E382B",
"5  c #3D3530",
"6  c #3D3C30",
"7  c #422D1B",
"8  c #45311D",
"9  c #423122",
"0  c #443825",
"q  c #423528",
"w  c #45392C",
"e  c #493D2D",
"r  c #543E25",
"t  c #533F2B",
"y  c #4A3E31",
"u  c #57442D",
"i  c #4E4232",
"p  c #4C473D",
"a  c #544433",
"s  c #5C4730",
"d  c #5C4932",
"f  c #554539",
"g  c #53493D",
"h  c #5C4A3B",
"j  c #624E3D",
"k  c #655435",
"l  c #67543B",
"z  c #6B5638",
"x  c #6C5B3A",
"c  c #715C3C",
"v  c #74613E",
"b  c #554C42",
"n  c #5C4E49",
"m  c #575047",
"M  c #5C5044",
"N  c #5D5349",
"B  c #665343",
"V  c #6A5646",
"C  c #6F5A44",
"Z  c #675749",
"A  c #695749",
"S  c #655A4E",
"D  c #6E5B4B",
"F  c #735E4C",
"G  c #655C53",
"H  c #736443",
"J  c #796542",
"K  c #796A47",
"L  c #75614C",
"P  c #7D6E4D",
"I  c #636357",
"U  c #6E655A",
"Y  c #716150",
"T  c #7A6C54",
"R  c #71695D",
"E  c #7E6D5E",
"W  c #766C63",
"Q  c #7B6F66",
"!  c #7E7263",
"~  c #7E756A",
"^  c #836B47",
"/  c #836F49",
"(  c #82724D",
")  c #8E754E",
"_  c #847452",
"`  c #8A7550",
"'  c #877953",
"]  c #887A56",
"[  c #8B745D",
"{  c #867A5B",
"}  c #8B7E5E",
"|  c #907D57",
" . c #927E5D",
".. c #807165",
"X. c #8B7763",
"o. c #8F7B63",
"O. c #85766E",
"+. c #8E7E6B",
"@. c #917E65",
"#. c #847D74",
"$. c #8B7C73",
"%. c #8F805E",
"&. c #8D8262",
"*. c #8E856E",
"=. c #948564",
"-. c #948867",
";. c #96856C",
":. c #978E6D",
">. c #9A8C6E",
",. c #8C8179",
"<. c #948C75",
"1. c #9D8F75",
"2. c #92837B",
"3. c #978E7B",
"4. c #9E9176",
"5. c #9B937D",
"6. c #A2947B",
"7. c #A4977E",
"8. c #968E87",
"9. c #9A9683",
"0. c #9E9986",
"q. c #9E948D",
"w. c #9D998A",
"e. c #A79981",
"r. c #AA9B84",
"t. c #A1968D",
"y. c #A19D8A",
"u. c #A39F8C",
"i. c #A99D8C",
"p. c #A29D93",
"a. c #A5A18F",
"s. c #A7A293",
"d. c #A9A594",
"f. c #ACA897",
"g. c #A9A49A",
"h. c #ADA99B",
"j. c #B2A797",
"k. c #B2AD9E",
"l. c #AEA6A0",
"z. c #AFACA1",
"x. c #B2AEA1",
"c. c #B9AEA3",
"v. c #B4B2A4",
"b. c #BAB4A6",
"n. c #B7B7AB",
"m. c #BAB6A9",
"M. c #BCB9AD",
"N. c #BEBEB3",
"B. c #C2BAAF",
"V. c #C3BEB2",
"C. c #C8BFB4",
"Z. c #C4C3B6",
"A. c #CAC4B7",
"S. c #C6C5BB",
"D. c #CDC6BB",
"F. c #CAC9BE",
"G. c #D1C8BD",
"H. c #CDCDC3",
"J. c #D4CDC4",
"K. c #CFD0C7",
"L. c #D0D1C7",
"P. c #D6D4CB",
"I. c #D9D3CB",
"U. c #D9D9D1",
"Y. c #E2DCD5",
"T. c #EBE7E0",
"R. c #EDE8E2",
/* pixels */
"+ : $ : & # : & % + # : : & X 3 X 6 > : $ # & # & : : : # # : : + & $ : & # > & % + # : : & . 3 X 6 < : # # : # & : : : # # : : ",
": ; ; ; r O + * ; 7 ; ; 8 ; ; 8 r O + * ; ; ; 8 7 r o O * ; ; 8 8 ; ; * O o r 7 8 ; ; ; * + O r 8 ; ; 8 ; ; 7 ; * + O r ; ; ; : ",
": ; z J v = ; c z x k x k k x / ) = 9 z k x c k v ^ - 9 z z v z z v z z 9 - ^ v k c x k z 9 = ) / x k k x k x z c ; = v J z ; # ",
": ; J ] | ; t H P K ' ` ` ( ` P ` ; s H ( ( ` ' ( ( , u H H K ' ' K H H u , ( ( ' ` ( ( H s ; ` P ` ( ` ` ' K P H t ; | ] J ; : ",
": r v | =.0 a _ _ =.' } ] ' ] P  .9 d _ P ' P _ %. .1 j ] ] ] _ _ ] ] ] j 1  .%._ _ ' P _ d 9  .P ] ' ] } ' =._ _ a 0 =.| v r # ",
": O = ; 0 q l &.&.{ &.T :.} { 4.>.3 l -.{ &.-.&.>.>.e C } } } &.&.} } } C e >.>.&.-.&.{ -.l 3 >.4.{ } :.T &.{ &.&.l q 0 ; = O # ",
"% + ; t a l [ 6.6.r.>.6.e.7.r.7.o.w L 4.1.7.7.r.6.@.q [ ;.e.4.7.7.4.e.;.[ q @.6.r.7.7.1.4.L w o.7.r.7.e.6.>.r.6.6.[ l a t ; + & ",
"$ * c H _ &.6.y y % w w w y y e , $ 3 w a i w 4 > 1 @ 3 y w y w w y w y 3 @ 1 > 4 w i i w 3 $ , e y y w w w % y y 6.&._ H c * $ ",
"% ; z P _ &.6.y ;.1 3 f h D D B D B h B V B D X.3 , y j V h F j j F h V j y , 3 X.D B V B h B D B D D h f 3 1 ;.y 6.&._ P z ; % ",
"$ 7 x K =.{ r.% 1 f A +.<.<.*.<.5.*.*.*.<.<.5.i.y f +.5.<.<.3.*.*.3.<.<.5.+.f y i.5.<.<.*.*.*.5.<.*.<.<.+.A f 1 % r.{ =.K x 7 $ ",
"% ; k ' ' &.>.w 3 A Y 5.d.y.y.0.d.y.0.u.u.d.d.j.Z T 3.a.9.0.0.y.y.0.0.9.a.3.T Z j.d.d.u.u.0.y.d.0.y.y.d.5.Y A 3 w >.&.' ' k ; & ",
"% ; x ` } T 6.w f +.5.0.y.u.u.k.y.u.d.0.y.d.d.d.g E 0.y.0.0.u.d.d.u.0.0.y.0.E g d.d.d.y.0.d.u.y.k.u.u.y.0.5.+.f w 6.T } ` x ; & ",
"% 8 k ` ] :.e.w h <.d.y.s.s.h.y.h.u.d.d.u.s.u.c.b ! a.s.y.d.f.s.s.h.d.u.s.a.! b c.u.s.u.d.d.u.h.y.h.s.s.y.d.<.h w e.:.] ` k 8 # ",
"# ; k ( ' } 7.y D <.y.u.s.f.s.h.s.s.s.x.h.d.k.c.M ..9.w.b.h.d.x.x.d.h.b.w.9...M c.k.d.h.x.s.s.s.h.s.f.s.u.y.<.D y 7.} ' ( k ; % ",
". ; x ` ] { r.y D *.y.u.h.s.f.h.p.f.v.k.h.f.x.m.S 3.w.d.f.d.h.f.f.h.d.f.d.w.3.S b.k.f.h.k.v.f.p.h.f.s.h.u.y.*.D y r.{ ] ` x ; 3 ",
"6 8 / P P 4.7.e B <.0.k.y.h.h.x.f.m.x.h.h.h.M.C.U ! h.f.h.x.f.b.b.f.x.h.f.h.! U C.M.h.h.h.x.m.f.x.h.h.y.k.0.<.B e 7.4.P P / 8 X ",
"4 r ) `  .>.o., D 5.d.y.h.s.p.f.x.v.v.v.m.h.A.b.N t.v.v.Z.m.h.m.m.h.m.Z.v.v.t.N b.A.h.m.v.v.v.x.f.p.s.h.y.d.5.D , o.>. .` ) r   ",
"  O = ; 9 3 w $ B *.y.u.u.s.f.m.v.A.B.A.V.D.G.c.N t.C.A.A.A.A.A.A.A.A.A.A.C.t.N c.G.D.V.A.B.A.v.m.f.s.u.u.y.*.B $ w 3 9 ; = O 2 ",
"@ + 9 s d l L 3 h *.0.d.d.s.v.x.v.B.~ R W U Q G 5 N G U p m Q R R Q m p U G N 5 G Q U W R ~ B.v.x.v.s.d.d.0.*.h 3 L l d s 9 + & ",
"$ * z H _ -.4.w B *.u.0.d.x.k.h.v.A.R $.O.,.2.O.$.$.q.c.b n Q 2.2.Q n b c.q.$.$.O.2.,.O.$.R A.v.h.k.x.d.0.u.*.B w 4.-._ H z * : ",
": ; k ( P { 1.a V <.u.y.u.h.h.h.m.V.W O.M.x.m.v.M.n.V.A.W O.x.z.z.x.O.W A.V.n.M.v.m.x.M.O.W V.m.h.h.h.u.y.u.<.V a 1.{ P ( k ; : ",
"& ; x ( ' &.7.i B <.d.d.s.f.f.h.h.D.U ,.x.N.Z.Z.M.F.F.I.Q q.M.F.F.M.q.Q I.F.F.N.Z.Z.N.x.,.U D.h.h.f.d.s.d.d.<.B i 7.&.' ( x ; : ",
"# ; c ` ( -.7.w D 5.d.d.u.k.x.M.A.G.Q 2.m.Z.N.N.N.S.H.J.~ q.n.S.S.n.q.~ J.H.S.N.N.N.Z.m.2.Q G.A.M.x.k.u.d.d.5.D w 7.-._ ` c ; # ",
"& 8 k ' _ &.r.4 X.i.j.d.c.c.m.C.b.c.G O.v.Z.N.N.S.S.H.D.,.8.S.H.H.S.8.,.D.H.S.S.N.N.Z.v.O.G c.b.C.m.c.c.i.j.i.X.4 r.&._ ' k 8 > ",
": 7 v ( %.>.6.> 3 y Z g b M S U N N 5 $.M.M.N.S.S.Z.Z.P.#.g.S.F.F.S.g.#.P.Z.Z.S.S.N.M.M.$.5 N N U S M b g Z y 3 > 6.>.%.( v 7 # ",
"> r ^ (  .>.@.1 , f T E ! ..3.! t.t.N $.n.F.S.S.Z.F.F.I.#.p.S.H.H.S.p.#.I.H.F.Z.S.S.F.n.$.N t.t.! 3...! E T f , 1 @.>. .( ^ r > ",
": o - , 1 e q @ y +.3.0.a.9.w.h.v.C.G q.V.F.H.H.Z.F.H.I.,.g.N.H.H.N.g.,.I.H.F.Z.H.H.F.V.q.G C.v.h.w.9.a.0.3.+.y @ q e 1 , - o : ",
": O 9 u j C [ 3 j 5.a.y.s.w.d.f.v.A.U c.A.I.J.D.P.I.I.Y.8.g.S.L.L.S.g.8.Y.I.I.P.D.J.I.A.c.U A.v.f.d.w.s.y.a.5.j 3 [ C j u 9 O > ",
": * z H ] } ;.y V <.9.0.y.b.f.h.Z.A.p b W Q ~ ,.#.#.,.8.,.l.N.P.P.N.l.,.8.,.#.#.,.~ Q W b p A.Z.h.f.b.y.0.9.<.V y ;.} ] H z * : ",
"# ; z H ] } e.w h <.0.0.d.h.d.x.m.A.m n O.q.q.8.g.p.g.g.l.m.U.K.K.U.m.l.g.g.p.g.8.q.q.O.n m A.m.x.d.h.d.0.w.<.h w e.} ] H z ; # ",
"& ; v K ] } 4.y F 3.0.u.h.d.h.f.h.A.Q Q x.M.n.S.S.S.N.S.N.U.R.T.T.R.U.N.S.N.S.S.S.n.M.x.Q Q A.h.f.h.d.f.u.0.3.F y 4.} ] K v ; & ",
"+ 8 z ' _ &.7.w j *.y.d.s.x.f.b.m.A.R 2.z.F.S.H.F.H.H.L.P.K.T.G N T.K.P.L.H.H.F.H.S.F.z.2.R A.m.b.f.x.s.d.y.*.j w 7.&._ ' z 8 % ",
"+ 8 z ' _ &.7.w j *.y.d.s.x.f.b.m.A.R 2.z.F.S.H.F.H.H.L.P.K.T.I N T.K.P.L.H.H.F.H.S.F.z.2.R A.m.b.f.x.s.d.y.*.j w 7.&._ ' z 8 : ",
"& ; v K ] } 4.y F 3.0.u.f.d.h.f.h.A.Q Q x.M.n.S.S.S.N.S.N.U.R.T.T.R.U.N.S.N.Z.S.S.n.M.x.Q Q A.h.f.h.d.f.u.0.3.F y 4.} ] K v ; : ",
"& ; z H ] } e.w h <.0.0.d.h.d.x.m.A.m n O.q.q.8.g.p.g.g.l.m.U.K.K.U.m.l.g.g.p.g.8.q.q.O.n m A.m.x.f.h.d.w.0.<.h w e.} ] H z ; # ",
"& * z H ] } ;.e V <.9.0.y.b.f.h.Z.A.p b W Q ~ ,.#.#.,.8.,.l.N.P.P.N.l.,.8.,.#.#.,.~ Q W b p A.Z.h.f.b.y.0.9.<.V y ;.} ] H z * : ",
": O 9 u j C [ 3 j 5.a.u.s.w.f.f.v.A.U c.A.I.J.D.P.I.I.Y.8.g.S.L.L.S.g.8.Y.I.I.P.D.J.I.A.c.U A.v.f.d.w.s.y.a.5.j 3 [ C j u 9 O # ",
": o - , 1 e q @ y +.3.0.a.9.w.h.v.C.G q.V.F.H.H.Z.F.H.I.,.g.N.H.H.N.g.,.I.H.H.Z.H.H.F.V.q.G C.v.h.w.9.a.0.3.+.y @ q e 1 , - o # ",
"% r ^ (  .>.@.1 , f T E ! ..3.! t.t.N $.n.F.S.S.Z.F.F.I.#.p.S.H.H.S.p.#.I.F.F.Z.S.S.F.n.$.N t.t.! 3...! E T f , 1 @.>. .( ^ r & ",
"$ 7 v ( %.>.6.> 3 y Z g b M S U N N 5 $.M.M.N.S.S.Z.Z.P.#.g.S.F.F.S.g.#.P.Z.Z.S.S.N.M.M.$.5 N N U S M b g Z y 3 > 6.>.%.( v 7 $ ",
"$ 8 k ' _ &.r.4 X.i.j.d.c.c.m.C.b.c.G O.v.Z.N.N.S.S.H.D.,.8.S.H.H.S.8.,.D.H.S.S.N.N.Z.v.O.G c.b.C.m.c.c.d.j.i.X.4 r.&._ ' k 8 % ",
"@ ; c ` _ -.7.w D 5.d.d.u.k.x.M.A.G.Q 2.m.Z.N.N.N.S.H.J.~ q.n.S.S.n.q.~ J.H.S.N.N.N.Z.m.2.Q G.A.M.x.k.u.d.d.5.D w 7.-._ ` c ; # ",
"$ ; x ( ' &.7.i B <.d.d.s.d.f.h.h.G.U ,.x.N.Z.Z.M.F.F.I.Q q.M.F.F.M.q.Q I.F.F.M.Z.Z.N.x.,.U D.h.h.f.d.s.d.d.<.B i 7.&.' ( x ; & ",
"% ; k ( P { 1.a V <.u.y.u.h.h.h.m.V.W O.M.x.m.v.M.n.V.A.W O.x.z.z.x.O.W A.V.n.M.v.m.x.M.O.W V.m.h.h.h.u.y.u.<.V i 1.{ P ( k ; & ",
"% * z H _ -.4.w B *.u.0.d.x.k.h.v.A.R $.O.,.2.O.$.$.q.c.b n Q 2.2.Q n b c.q.$.$.O.2.,.O.$.R A.v.h.k.x.d.0.u.*.B w 1.-._ H z * # ",
"+ + 9 s d l L 3 h *.0.d.d.s.v.x.v.B.~ R W U Q G 5 N G U p m Q R R Q m p U G N 5 G Q U W R ~ B.v.x.v.s.d.d.0.*.h 3 L l d s 9 + % ",
"  O = ; 9 3 w $ B *.y.u.u.s.f.m.v.A.B.A.V.D.G.c.N t.C.A.A.A.A.A.A.A.A.A.A.C.t.N c.G.D.V.A.B.A.v.m.f.s.u.u.y.*.B $ w 3 9 ; = O 2 ",
"6 r ) `  .>.o., D 5.d.y.h.s.p.f.x.v.v.v.m.h.A.b.N t.v.v.Z.m.h.m.m.h.m.Z.v.v.t.N b.A.h.m.v.v.v.x.f.p.s.h.y.d.5.D , o.>. .` ) r X ",
"4 8 / P P 4.7.e B <.0.k.y.h.h.x.f.m.x.h.h.h.M.C.U ! h.f.h.x.f.m.b.f.x.h.f.h.! U C.M.h.h.h.x.m.f.x.h.h.y.k.0.<.B e 7.4.P P / 8   ",
"  ; x ` ] { r.y D *.y.u.h.s.f.h.p.f.v.k.h.f.x.m.S 3.w.d.f.d.h.f.f.h.d.f.d.w.3.S m.k.f.h.k.v.f.p.h.f.s.h.u.y.*.D y r.{ ] ` x ; 3 ",
"@ ; k ( ' } 7.y D <.y.u.s.f.s.h.s.s.s.x.h.d.k.c.M ..9.w.b.h.f.x.x.d.h.b.w.9...M c.k.d.h.x.s.s.s.h.s.f.s.u.y.<.D y 7.} ' ( k ; & ",
"$ 8 k ` ] :.e.w h <.d.y.s.s.h.y.h.u.d.d.u.s.u.c.b ! a.s.y.d.f.s.s.f.d.y.s.s.! b c.u.s.u.d.d.u.h.y.h.s.s.y.d.<.h w e.:.] ` k 8 : ",
"& ; x ` } T 6.w f +.5.0.y.u.u.k.y.u.d.0.y.d.d.d.g E 0.y.0.0.u.d.d.u.0.0.u.0.E g d.d.d.y.0.d.u.y.k.u.u.y.0.5.+.f w 6.T } ` x ; : ",
"& ; k ' ' &.>.w 3 A Y 5.d.y.y.0.d.y.0.y.u.d.d.j.Z T 3.a.9.0.0.y.y.0.w.9.a.3.T Z j.d.d.u.u.0.y.d.0.y.y.d.5.Y A 3 w >.&.' ' k ; : ",
"$ 7 x K =.{ r.% 1 f A +.<.<.*.<.5.*.*.*.<.<.5.i.y f +.5.<.<.3.*.*.3.<.<.5.+.f y i.5.<.<.*.*.*.5.<.*.<.<.+.A f 1 % r.{ =.K x 7 $ ",
"% ; z P _ &.6.y ;.1 3 f h D D B D B h B V B D X.3 , y j V h F j j F h V j y , 3 X.D B V B h B D B D D h f 3 1 ;.y 6.&._ P z ; : ",
": * c H _ &.6.y y % w w w y y e , $ 3 w a i w 4 > , @ 3 y w y w w y w y 3 @ 1 > 4 w i a w 3 $ , e y y w w w % y y 6.&._ H c * # ",
": + ; t a l [ 6.6.r.>.6.e.7.r.7.o.w L 4.1.7.7.e.6.@.q [ ;.e.4.7.7.4.e.;.[ q @.6.r.7.7.1.4.L w o.7.r.7.e.6.>.r.6.6.[ l a t ; + > ",
": O = ; 0 q l &.&.{ &.T :.} { 4.>.3 l -.{ &.-.&.>.>.e C } } } &.&.} } } C e >.>.&.-.&.{ -.l 3 >.4.{ } :.T &.{ &.&.l q 0 ; = O : ",
": r v | =.0 a _ _ =.' } ] ' ] P  .9 d _ P ' _ _ %. .1 j ] ] ] _ _ ] ] ] j 1  .%._ _ ' P _ d 9  .P ] ' ] } ' =._ _ a 0 =.| v r > ",
"& ; J ] | ; t H P K ' ` ` ( ` P ` ; s H ( ( ` ' ( ( , u H H K ' ' K H H u , ( ( ' ` ( ( H s ; ` P ` ( ` ` ' K P H t ; | ] J ; : ",
"# ; z J v = ; c z x k x k k x / ) = 9 z k x c k v ^ - 9 z z v z z v z z 9 - ^ v k c x k z 9 = ) / x k k x k x z c ; = v J z ; # ",
": ; ; ; r O + * ; 7 ; ; 8 ; ; 8 r O + * ; ; ; 8 7 r o O * ; ; 8 8 ; ; * O o r 7 8 ; ; ; * + O r 8 ; ; 8 ; ; 7 ; * + O r ; ; ; : ",
"+ : < : : $ : # % % # : # & X 4 X 5 > : $ : $ : % : # : : & & % + : : : : $ > # % % # : # &   4 X 6 < : $ : $ : % & # : : : : % "
};
