/* XPM */
static char *c4d7dc928ca84813a2bddfb9e1391349VgMNHB0hPo7C0UIE[] = {
/* columns rows colors chars-per-pixel */
"64 64 134 2 ",
"   c #0F0C09",
".  c #100F0A",
"X  c #16110C",
"o  c #19130E",
"O  c #161412",
"+  c #1A1612",
"@  c #1D1914",
"#  c #1D1C19",
"$  c #231C16",
"%  c #231E1A",
"&  c #281F19",
"*  c #2C2416",
"=  c #25221E",
"-  c #2A231D",
";  c #342C1C",
":  c #39311F",
">  c #272521",
",  c #292622",
"<  c #2D2A24",
"1  c #2F2E28",
"2  c #322C26",
"3  c #3A2E23",
"4  c #322D29",
"5  c #3B3323",
"6  c #3F3827",
"7  c #36312C",
"8  c #3B322E",
"9  c #3E382B",
"0  c #3D3631",
"q  c #453B2A",
"w  c #413733",
"e  c #443B33",
"r  c #443E3A",
"t  c #493E39",
"y  c #474133",
"u  c #4C4434",
"i  c #4A423B",
"p  c #4F4A3A",
"a  c #524433",
"s  c #524C3D",
"d  c #5C4C3A",
"f  c #55503F",
"g  c #504740",
"h  c #544C44",
"j  c #5A4D45",
"k  c #565242",
"l  c #5A5544",
"z  c #5D5847",
"x  c #565349",
"c  c #5A514B",
"v  c #5D5A4B",
"b  c #5E5650",
"n  c #625E4D",
"m  c #6A5C4C",
"M  c #645A51",
"N  c #656152",
"B  c #6B6555",
"V  c #6E6957",
"C  c #686558",
"Z  c #6D695A",
"A  c #736458",
"S  c #736C5C",
"D  c #7C6E5C",
"F  c #6F6E60",
"G  c #786C62",
"H  c #7C6C68",
"J  c #757364",
"K  c #7E7364",
"L  c #787769",
"P  c #77786B",
"I  c #7C7B6C",
"U  c #817566",
"Y  c #80766A",
"T  c #837C6C",
"R  c #897C6C",
"E  c #80806F",
"W  c #848474",
"Q  c #8A8473",
"!  c #898977",
"~  c #858678",
"^  c #878879",
"/  c #8C8D7C",
"(  c #918473",
")  c #968977",
"_  c #93887A",
"`  c #8E907E",
"'  c #91907F",
"]  c #958780",
"[  c #9C8B84",
"{  c #8F9180",
"}  c #929383",
"|  c #9D9285",
" . c #979887",
".. c #999987",
"X. c #9B9D8C",
"o. c #A1978A",
"O. c #A49D8D",
"+. c #A49E91",
"@. c #9EA18F",
"#. c #9FA190",
"$. c #A1A392",
"%. c #A3A491",
"&. c #A6A593",
"*. c #A6A094",
"=. c #A2A594",
"-. c #A7A797",
";. c #A6A896",
":. c #A9AB99",
">. c #ABAD9B",
",. c #AEAF9A",
"<. c #ADAF9D",
"1. c #B1A79A",
"2. c #B1AA9E",
"3. c #B4A99D",
"4. c #AEB09D",
"5. c #B3ADA0",
"6. c #B4AEA1",
"7. c #B7B0A3",
"8. c #BAB0A4",
"9. c #BBB4A7",
"0. c #B9B8A6",
"q. c #BEB7A9",
"w. c #BFB9AB",
"e. c #C0B6A8",
"r. c #C2BBAD",
"t. c #C4B9AC",
"y. c #C3BCAE",
"u. c #C5BDAF",
"i. c #C7BEB0",
"p. c #CBC3B5",
"a. c #D2CABB",
"s. c #D4CCBC",
"d. c #DCD3C4",
"f. c #E1D3C4",
/* pixels */
"= = + < , > < , , = > , < , O 4 + 1 # < = = , = , , < < = , < < = > > , , = > > = % = > < + O , # < > > = > , = , , , > = O = , ",
"% H 7 [ 8.d.5.7.f.s.*.a.q.6.y.a.+.[ 4 ] t.2.p.w.r.2.p.9.7.u.f.i.f.f.u.7.9.p.2.r.w.p.2.t.] 4 [ +.a.y.6.q.a.*.s.f.7.5.d.8.[ 7 H = ",
"+ 7 r 1.0.:.} =.X. .$.<./ / } X. .b r e.-.X.$.<./ ;.@.:.X.^  .{ X. .^ X.:.@.;./ <.$.X.-.e.r b  .X.} / / <.$. .X.=.} :.0.1.r 7 + ",
", [ 1.3.+.;.X.4.X.X.W X.X.{  .X.I h 7 e.X.X.~ } >.#./ } ^ { / X.X./ { ^ } / #.>.} ~ X.X.e.7 h I X. .{ X.X.W X.X.4.X.;.+.3.1.[ < ",
"> 8.0.+.&.^ ^ } X.^ :.$.} / } ^ P c 0 o.,. .@.;.^ /  .} } { { } X.{ { } }  ./ ^ ;.@. .,.o.0 c P ^ } / } $.:.^ X.} ^ ^ &.+.0.8.= ",
", d.:.;.^ / ^ } } / / W X.~ }  .P c r O.O.}  ./ / ^ / W  .^ %./ } %.^  .W / ^ / /  .} O.O.r c P  .} ~ X.W / / } } ^ / ^ ;.:.d.> ",
"> 5.} X.^ ^ } ' / ,.~ ^ W / / W I h 0 o.' I X.P } ^ ` / ~  ./ / / /  .~ / ` ^ } P X.I ' o.0 h I W / / W ^ ~ ,./ ' } ^ ^ X.} 5.< ",
"= 7.=.4.} } ' W } P I } ' ~ / ..I c 4 | O.~ I I ..~ I W L X.! ~ } ! X.L W I ~ ..I I ~ O.| 4 c I ../ ~ ' } I P } W ' } } 4.=.7., ",
"= f.X.X.X.} / } W I I I P W W ^ J h < O.~ I I ~ W ~ I Q ' / / ^ W / / ' Q I ~ W ~ I I ~ O.< h J ^ W W P I I I W } / } X.X.X.f., ",
"= s. .X.^ / ,.P I I E P I I I W Z i 7 _ T I F I P ^ J E / I ! T J ! I / E J ^ P I F I T _ 7 i Z W I I I P E I I P ,./ ^ X. .s.> ",
"> *.$.W :./ ~ I I E P T Q Z I J Z g < Y J I I I I J I I J W / W I / W J I I J I I I I J Y < g Z J I Z Q T P E I I ~ / :.W $.*.< ",
"= a.<.X.$.W ^ } I P T S N N Z N G 8 , T I N v Z N C Z Z x N J M Z J N x Z Z C N Z v N I T , 8 G N Z N N S T P I } ^ W $.X.<.a.> ",
"= q./ X.} X.W ' P I Q N w 8 e 0 4 & % M h e 0 t w e 8 w t w w w w w 0 t w 8 w w t 0 e h M % & 4 0 e 8 w N Q I P ' W X.} X./ q.= ",
"= 6./ { / ~ / ~ W I Z N 8 < < 4 , = % , % O = < 4 < < < < 4 , < 4 , 4 < < < < 4 < = O % , % = , 4 < < 8 N Z I W ~ / ~ / { / 6.> ",
"O y.}  .} } / / W I I Z e < ( R U K R U j - A R U Q U U ) R R Q ( R R ) U U Q U R A - j U R K U R ( < e Z I I W / / } }  .} y.< ",
"1 a.X.X.^  .W ..^ W J N 0 4 R N Z N v N i < V S N Z B B B N J Z T J N B B B Z N S V < i N v N Z N R 4 0 N J W ^ ..W  .^ X.X.a.+ ",
"< +. .I P P I I J Z Z G 4 , U Z N v n k e - S n n n Z B n N n Z S n N n B Z n n n S - e k n v N Z U , 4 G Z Z J I I P P I  .+.O ",
"O [ b h c c h c h i g 8 & = K N v n V k 7 - D B N N v n v v v v N v v v n v N N B D - 7 k V n v N K = & 8 g i h c h c c h b [ < ",
"O 4 r 7 0 r 0 4 < 7 < , % % R v n V N h 4 - B z z l z B k n k N n k n k B z l z z B - 4 h N V n v R % % , < 7 < 4 0 r 0 7 r 4 # ",
", ] e.e.o.O.o.| O._ Y T M , U N k k h s 2 = D k s n s n n z l k s l z n n s n s k D = 2 s h k k N U , M T Y _ O.| o.O.o.e.e.] < ",
"> t.-.X.,.O.' O.~ T J I h % j i e 7 4 2 2 % m k s z f k s k s k k s k s k f z s k m % 2 2 4 7 e i j % h I J T ~ O.' O.,.X.-.t., ",
"> 2.X.X. .} I ~ I I I N e O - < - - - = % @ s k k u s k s k p s k p k s k s u k k s @ % = - - - < - O e N I I I ~ I }  .X.X.2., ",
"= p.$.~ @. .X.I I F I v 0 = A V S D B D m s d a y 9 e e e e e 9 u e e e e e 9 y a d s m D B D S V A = 0 v I F I I X. .@.~ $.p.= ",
"= w.<.} ;./ P I ~ I I Z t < R S n B z k k k a - $ - & & $ $ - & - - $ $ & & - $ - a k k k z B n S R < t Z I I ~ I P / ;.} <.w.> ",
"> r./ >.^ / } ..W P I N w 4 U N n N z s s k y $ o   X @ + @ @ + + @ @ + @ X   o $ y k s s z N n N U 4 w N I P W ..} / ^ >./ r.= ",
"> 2.;.#./ ^ ^ ~ ~ ^ J C w < Q Z n N l n z u 9 -   o 3 a d d u a a u d d a 3 o   - 9 u z n l N n Z Q < w C J ^ ~ ~ ^ ^ / #.;.2.< ",
", p.@./  ./ ` I I J I Z 8 < U B Z v z s f s e & X 3 q q 6 6 6 6 q 6 6 6 q q 3 X & e s f s z v Z B U < 8 Z I J I I ` /  ./ @.p.< ",
"< 9.:.} } W / W Q E I Z w < U B B n B n k k e & @ a q 5 ; 5 5 5 ; : 5 ; 5 q a @ & e k k n B n B B U < w Z I E Q W / W } } :.9.< ",
"> 7.X.^ }  .~ L ' / J x t < ) B n v k n s s e $ + d 6 ; ; ; ; : : ; ; ; ; 6 d + $ e s s n k n n B ) < t x J / ' L ~  .} ^ X.7.< ",
"> u.^ { { ^  .X./ I W N 0 4 R N N v n z k k e $ @ d q 5 ; * * * * ; * ; 5 6 d @ $ e k k z n v N N R 4 w N W I / X. .^ { { ^ u., ",
"> f. ./ { %./ ! / ! / J w , R J n v k l s p e - @ u 6 5 ; ; . o X X ; ; 5 6 u @ - e p s l k v n J R , w J / ! / ! / %.{ /  .f., ",
"= f.X.X.X.} / } W J I Z w 4 ( T S N n s k k u - + a q ; : * X X X o * 5 5 6 a + & 9 s k k N v Z Z Q < w M W T ^ ~ / / } X.{ i., ",
"= i.{ X.} / / ~ ^ T W M w < Q Z Z v N k k s 9 & + a 6 5 5 * o O . X * : ; q a + - u k k s n N S T ( 4 w Z I J W } / } X.X.X.f.> ",
", f. ./ { %./ ! / ! / J w , R J n v k l s p e - @ u 6 5 ; ; X X o X ; ; 5 6 u @ - e p s l k v n J R , w J / ! / ! / %.{ /  .f.> ",
"< u.^ { { ^  .X./ I W N 0 4 R N N v n z k k e $ @ d 6 5 ; * ; * * ; * ; 5 6 d @ $ e k k z n v N N R 4 w N W I / X. .^ { { ^ u.> ",
"< 7.X.^ }  .~ L ' / J x t < ) B n v k n s s e $ + d 6 ; ; ; ; : : ; ; ; ; 6 d + $ e s s n k v n B ) < t x J / ' L ~  .} ^ X.7.> ",
"< 9.:.} } W / W Q E I Z w 2 U B B n B n k k e & @ a q 5 ; 5 5 ; 5 : 5 ; 5 q a @ & e k k n B n B B U < w Z I E Q W / W } } :.9.= ",
"< p.@./  ./ ` I I J T Z 8 < U B Z v z s f s e & X 3 q q 6 6 6 q 6 6 6 6 q q 3 X & e s f s z v Z B U < 8 Z I J I I ` /  ./ @.p.= ",
"> 2.;.#./ ^ ^ ~ ~ ^ J C w < Q Z n N l n z u 9 -   o 3 a d d u a a u d d a 3 o   - 9 u z n l N n Z Q < w C J ^ ~ ~ ^ ^ / #.;.2.= ",
"= r./ >.^ / } ..W P I N w 4 U N n N z s s k y $ o   X @ + @ @ + + @ @ + @ X   o $ y k s s z N n N U 4 w N I P W ..} / ^ >./ r.= ",
"= w.<.} ;./ P I ~ I I Z t < R S n B z k k k a - $ - & & $ $ - - & - $ $ & & - $ - a k k k z V n S R < t Z I I ~ I P / ;.} <.w.= ",
"= p.$.~ @. .X.I I F I v 0 = A V S D B D m s d a y 9 y e e e e u 9 e e e e e 9 y a d s m D B D S V A = 0 v I F I I X. .@.~ $.p.= ",
"= 2.X.X. .} I ~ I I I N e O - < - - - = % @ s k k u s k s k p k s p k s k s u k k s @ % = - - - < - O e N I I I ~ I }  .X.X.2.> ",
", t.-.X.,.O.' O.~ T J I h % j i e 7 4 2 2 % m k s z f k s k s k k s k s k f z s k m % 2 2 4 7 e i j % h I J T ~ O.' O.,.X.-.t.> ",
"< ] e.e.o.O.o.| O._ Y T M , U N k k h s 2 = D k s n s n n z l s k z z n n s n s k D = 2 s h k k N U , M T Y _ O.| o.O.o.e.e.] > ",
"O 4 r 7 0 r 0 4 < 7 < , % % R v n V N h 4 - B z z l z B k n k n N k n k B z l z z B - 4 h N V n v R % % , < 7 < 4 0 r 0 7 r 4 + ",
"O [ b h c c h c h i g 8 & = K N v n V k 7 - D B N N v n v v v N v v v v n v N N B D - 7 k V n v N K = & 8 g i h c h c c h b [ > ",
"7 +. .I P P I I J Z Z G 4 , U Z N v n k e - S n n n Z B n N n S Z n N n B Z n n n S - e k n v N Z U , 4 G Z Z J I I P P I  .+.+ ",
"7 a.X.X.^  .W ..^ W J N 0 4 R N Z N v N i < V S N Z B B V N J T Z J N V B B Z N S V < i N v N Z N R 4 0 N J W ^ ..W  .^ X.X.a.+ ",
"O y.}  .} } / / W I I Z e < ( R U K R U j - A R U Q U U ) R R ( Q R R ) U U Q U R A - j U R K U R ( < e Z I I W / / } }  .} y., ",
"= 6./ { / ~ / ~ W I Z N 8 < < 4 , = % , % O = < 4 < < < < 4 , 4 < , 4 < < < < 4 < = O % , % = , 4 < < 8 N Z I W ~ / ~ / { / 6.> ",
"= q./ X.} X.W ' P I Q N w 8 e 0 4 & % M h e 0 t w w 8 w t 0 w w w w 0 t w 8 w w t 0 e h M % & 4 0 e 8 w N Q I P ' W X.} X./ q.> ",
"> a.<.X.$.W ^ } I P T S N N Z N G 8 , T I M v Z N C Z Z x N J Z M J N x Z Z C N Z v N I T , 8 G N Z N N S T P I } ^ W $.X.<.a.> ",
", *.$.W :./ ~ I I E P T Q Z I J Z g < Y J I I I I J I I J W / I W / W J I I J I I I I J Y < g Z J I Z Q T P E I I ~ / :.W $.*., ",
", s. .X.^ / ,.P I I E P I I I W Z i 7 _ T I F I P ^ J E / I ! J E ! I / E J ^ P I F I T _ 7 i Z W I I I P E I I P ,./ ^ X. .s.= ",
", f.X.X.X.} / } W I I I P W W ^ J h < O.~ I I ~ W ~ I Q ' / / W ^ / / ' Q I ~ W ~ I I ~ O.< h J ^ W W P I I I W } / } X.X.X.f.> ",
"< 7.=.4.} } ' W } P I } ' ~ / ..I c 4 | O.~ I I ..~ I W L X.! } ~ ! X.L W I ~ ..I I ~ O.| 4 c I ../ ~ ' } I P } W ' } } 4.=.7.= ",
"< 5.} X.^ ^ } ' / ,.~ ^ W / / W I h 0 o.' I X.P } ^ ` / ~  ./ / / /  .~ / ` ^ } P X.I ' o.0 h I W / / W ^ ~ ,./ ' } ^ ^ X.} 5.< ",
"< d.:.;.^ / ^ } } / / W X.~ }  .P c r O.O.}  ./ / ^ / W  .^ %.} / %.^  .W / ^ / /  .} O.O.r c P  .} ~ X.W / / } } ^ / ^ ;.:.d., ",
"< 8.0.+.&.^ ^ } X.^ :.$.} / } ^ P c 0 o.,. .@.;.^ /  .} } { { X.} { { } }  ./ ^ ;.@. .,.o.0 c P ^ } / } $.:.^ X.} ^ ^ &.+.0.8., ",
"< [ 1.3.+.;.X.4.X.X.W X.X.{  .X.I h 7 e.X.X.~ } >.#./ } ^ { / X.X./ { ^ } / #.>.} ~ X.X.e.7 h I X. .{ X.X.W X.X.4.X.;.+.3.1.[ , ",
"+ 7 r 1.0.:.} =.X. .$.<./ / } X. .b r e.-.X.$.<./ ;.@.:.X.^  .X.{  .^ X.:.@.;./ <.$.X.-.e.r b  .X.} / / <.$. .X.=.} :.0.1.r 7 O ",
"= H 7 [ 8.d.5.7.f.s.*.a.q.6.y.a.+.[ 4 ] t.2.p.w.r.2.p.9.7.u.f.f.i.f.u.7.9.p.2.r.w.p.2.t.] 4 [ +.a.y.6.q.a.*.s.f.7.5.d.8.[ 7 H % ",
"= % + , > = < = = > = > = > O < + , + < = > = = = > = , , , > > = < < < < , < = = > = , , @ O 4 + 4 < < = < , , , < = < < @ = > "
};
