/* XPM */
static char *_f6d9da9cf0241c9c13d96304d5b8b3cBq7SPS7QxOxGcotn[] = {
/* columns rows colors chars-per-pixel */
"64 64 161 2 ",
"   c #282018",
".  c #2C2A1B",
"X  c #3D2B1B",
"o  c #322D2D",
"O  c #3A3125",
"+  c #3C342B",
"@  c #3D3A2B",
"#  c #353230",
"$  c #383232",
"%  c #3D3B32",
"&  c #3F3E38",
"*  c #47321D",
"=  c #43382B",
"-  c #423F34",
";  c #493E30",
":  c #443F3D",
">  c #4E4232",
",  c #46433D",
"<  c #4C4439",
"1  c #4C493D",
"2  c #5A473A",
"3  c #574C3F",
"4  c #5A493A",
"5  c #614E3F",
"6  c #63503F",
"7  c #695738",
"8  c #6F5E3D",
"9  c #715E3D",
"0  c #544D44",
"q  c #554E49",
"w  c #555347",
"e  c #5E5347",
"r  c #56544A",
"t  c #5C554B",
"y  c #5D5A4E",
"u  c #5E5650",
"i  c #5E5C51",
"p  c #655042",
"a  c #695747",
"s  c #61544D",
"d  c #655B4E",
"f  c #6F5C4C",
"g  c #715E4C",
"h  c #635C52",
"j  c #695E50",
"k  c #776542",
"l  c #796B47",
"z  c #7D6F4E",
"x  c #656255",
"c  c #6C6357",
"v  c #67655B",
"b  c #6C665B",
"n  c #6C6A5D",
"m  c #71655A",
"M  c #72695C",
"N  c #79695A",
"B  c #6F6D62",
"V  c #756C63",
"C  c #7C6E64",
"Z  c #776D69",
"A  c #757267",
"S  c #777769",
"D  c #7E756D",
"F  c #7D796D",
"G  c #80714C",
"H  c #837552",
"J  c #877957",
"K  c #897955",
"L  c #87715A",
"P  c #827567",
"I  c #85776F",
"U  c #827B73",
"Y  c #8B7C73",
"T  c #8D8162",
"R  c #8C846C",
"E  c #958567",
"W  c #938867",
"Q  c #968A6B",
"!  c #8E8077",
"~  c #89827A",
"^  c #968E77",
"/  c #93847C",
"(  c #94887B",
")  c #9E9075",
"_  c #97907B",
"`  c #9C947E",
"'  c #A2947B",
"]  c #928B84",
"[  c #998D84",
"{  c #958E88",
"}  c #9B9485",
"|  c #9F9A87",
" . c #989088",
".. c #A09883",
"X. c #AB9C85",
"o. c #A0978F",
"O. c #A29D8B",
"+. c #A89C8B",
"@. c #A39C94",
"#. c #A99D95",
"$. c #A5A08F",
"%. c #A6A192",
"&. c #AAA595",
"*. c #A5A299",
"=. c #A9A29B",
"-. c #ADAA9C",
";. c #B1AC9D",
":. c #ACA5A0",
">. c #AFADA2",
",. c #B3A7A0",
"<. c #B1AFA1",
"1. c #B9AFA1",
"2. c #B5B2A4",
"3. c #BAB4A7",
"4. c #B6B4A9",
"5. c #BAB6AA",
"6. c #BDBAAD",
"7. c #BEBDB2",
"8. c #C0B7AF",
"9. c #C3B9AA",
"0. c #C3B7B4",
"q. c #C5BEB3",
"w. c #BFC0B7",
"e. c #C2C2B7",
"r. c #CAC2B6",
"t. c #C5C5BA",
"y. c #CCC6BA",
"u. c #C7C8BD",
"i. c #CAC9BE",
"p. c #D2CABE",
"a. c #CDCDC3",
"s. c #D1CDC5",
"d. c #D6CDC8",
"f. c #CFD0C7",
"g. c #D1D1C6",
"h. c #D4D5CB",
"j. c #D9D5CC",
"k. c #DAD5CD",
"l. c #D7D8CF",
"z. c #D8D8CF",
"x. c #DCD6D0",
"c. c #D9DBD2",
"v. c #DBDCD3",
"b. c #DCDCD3",
"n. c #DBDCD4",
"m. c #DCDDD5",
"M. c #E1DCD5",
"N. c #E2DFD8",
"B. c #DFE0D7",
"V. c #E4E0DA",
"C. c #E5E4DB",
"Z. c #E5E2DC",
"A. c #E7E5DE",
"S. c #E8E3DC",
"D. c #E9E5DF",
"F. c #EAE6E0",
"G. c #ECE9E3",
"H. c #EFECE5",
"J. c #F0EDE6",
"K. c #F3EFE9",
"L. c #F5EFE9",
/* pixels */
"w y - n b x B b x h x x b x % A & V 0 V d d x r b v n n x x n n r x h x x y i h r r t x b - $ b 0 n x h r i x t x v x h s + r x ",
"q 0.D d.V.K.N.V.L.J.c.H.A.N.D.H.x.d.Z s.D.M.G.A.D.M.G.Z.V.F.L.F.L.L.F.V.Z.G.M.D.A.G.M.D.s.Z d.x.H.D.N.A.H.c.J.L.V.N.K.V.d.D 0.i ",
"% D { M.C.m.g.c.h.h.c.B.a.a.g.l.g.:.{ S.m.h.c.m.a.n.l.m.h.a.g.f.h.g.a.h.m.l.n.a.m.c.h.m.S.{ :.g.l.g.a.a.B.c.h.h.c.g.m.C.M.{ D % ",
"x d.M.M.z.v.h.B.h.h.u.h.h.a.h.l.e.@.U D.h.h.a.g.m.z.a.a.a.a.a.h.h.a.a.a.f.a.z.m.g.a.h.h.D.U @.e.l.h.a.h.h.u.h.h.B.h.v.z.M.M.d.b ",
"h V.C.z.c.a.a.g.h.a.m.z.f.a.f.a.w.=.~ j.m.h.l.b.a.a.g.g.f.f.f.g.h.f.f.f.g.g.a.a.b.l.h.m.j.~ =.w.a.f.a.f.z.m.a.h.g.a.a.c.z.C.V.h ",
"x K.m.v.a.a.a.g.f.a.a.u.h.i.g.g.e.=.] x.z.g.g.a.a.a.a.u.h.a.c.a.f.c.a.h.u.a.a.a.a.g.g.z.j.] =.e.g.g.i.h.u.a.a.f.g.a.a.a.v.m.K.h ",
"x N.g.h.a.a.g.a.a.B.i.a.u.a.a.u.e.@.~ j.s.e.h.e.g.a.a.a.i.h.a.a.a.a.h.i.a.a.a.g.e.h.e.s.j.~ @.e.u.a.a.u.a.i.B.a.a.g.a.a.h.g.N.n ",
"i V.c.B.g.g.a.u.g.e.e.s.s.i.a.h.t.=.Z h.j.i.e.t.h.i.t.u.q.h.i.i.g.i.h.q.u.t.i.h.t.e.i.j.h.Z =.t.h.a.i.s.s.e.e.g.u.a.g.g.B.c.V.h ",
"u L.h.h.h.f.a.g.t.e.e.e.e.u.t.a.7.@.V j.i.t.t.i.u.i.t.i.g.a.a.a.t.a.a.g.i.t.i.u.i.t.t.i.j.V @.7.a.t.u.e.e.e.e.t.g.a.f.h.h.h.L.x ",
"h J.h.h.a.a.B.e.e.t.t.e.t.t.e.u.4. .D s.t.e.5.e.e.a.7.t.a.e.i.t.7.i.e.a.t.7.a.e.e.5.e.t.s.D  .4.u.e.t.t.e.t.t.e.e.B.a.a.h.h.J.h ",
"h c.c.u.m.a.i.e.e.t.e.t.i.4.e.7.4.o.V q.7.e.e.e.e.7.e.e.7.i.a.u.e.a.i.7.e.e.7.e.e.e.e.7.q.V o.4.7.e.4.i.t.e.t.e.e.i.a.m.u.c.c.b ",
"t H.B.h.z.u.a.s.e.e.t.5.<.<.5.<.8.I h r.e.>.-.5.<.2.5.4.*.<.6.>.5.6.<.*.4.5.2.<.5.-.>.e.r.h I 8.<.5.<.<.5.t.e.e.s.a.u.z.h.B.H.x ",
"y A.a.h.f.h.u.s.e.t.i.<./ Y ( ! C s q ,.@.( Y [ / / Y / [ ! / / / / ! [ / Y / / [ Y ( @.,.q s C ! ( Y / <.i.t.e.s.u.h.f.h.a.A.u ",
"r N.a.a.a.i.a.a.u.t.4.<.Y M M C c s 0 c q + e b V M M V b V x M C x V b V M M V b e + q c 0 s c C M M Y <.4.t.u.i.a.i.a.a.a.N.h ",
"% D.g.h.f.g.a.a.t.e.e.5.( M y.y.q.q.r.q.#.h 3.r.r.y.r.q.p.r.y.y.p.y.r.p.q.r.y.r.r.3.h #.q.r.q.q.y.y.M ( 5.e.e.t.a.a.g.f.h.g.D.n ",
"A H.l.l.a.g.u.h.a.u.7.<.! C y.2.3.2.=.<. .m 3.5.<.4.2.2.2.2.6.5.r.6.2.2.2.2.4.<.5.3.m  .<.=.2.3.2.y.C ! <.7.u.a.h.u.g.a.l.l.H.: ",
"n x.g.e.w.e.e.t.7.4.4.8.C c q.3.2.-.-.%.( d 5.-.;.;.3.2.-.<.-.3.5.-.<.-.2.3.;.;.-.5.d ( %.-.-.2.3.q.c C 8.4.4.7.t.e.e.w.e.g.x.% ",
"# d.:.@.=.=.@.=.@. .o.I s s q.2.-.;.3.%.P j 9.2.<.<.-.-.-.-.-.-.;.-.-.-.-.-.<.<.2.9.j P %.3.;.-.2.q.s s I o. .@.=.@.=.=.@.:.d.b ",
"+ Z { U ~ ] ~ Z V D V h q 0 r.=.-.3.2.@.C d 1.&.&.&.&.2.%.;.%.<.;.%.;.%.2.&.&.&.&.1.d C @.2.3.-.=.r.0 q h V D V Z ~ ] ~ U { Z 1 ",
"h s.S.D.j.j.j.h.j.s.q.r.,.c q.<.%.%.@.O.N e 9.%.O.-.O.-.;.&.&.%.O.&.&.;.-.O.-.O.%.9.e N O.@.%.%.<.q.c ,.r.q.s.j.h.j.j.j.D.S.s.V ",
"h D.m.h.m.z.s.j.i.t.7.e.@.q #. .( P C N N 3 ;.%.O.&.$.&.O.$.O.&.&.O.$.O.&.$.&.O.%.;.3 N N C P (  .#.q @.e.7.t.i.j.s.z.m.h.m.D.b ",
"h M.h.h.h.g.e.i.t.e.e.>.( + h m d j d e 3 < +.$.%.} O.$.O.$.| O.&.| $.O.$.O.} %.$.+.< 3 e d j d m h + ( >.e.e.t.i.e.g.h.h.h.M.b ",
"t G.c.a.l.g.h.e.t.5.e.-.Y e 3.3.5.9.1.9.;.+.+..._ R ^ ^ ^ ^ ^ R ` ^ ^ ^ ^ ^ R _ ..+.+.;.9.1.9.5.3.3.e Y -.e.5.t.e.h.g.l.a.c.G.i ",
"r A.m.g.b.a.e.t.i.e.e.5.[ b r.5.-.2.&.%.%.$...g 4 a p 6 2 4 a 5 f a 4 2 6 p a 4 g ..$.%.%.&.2.;.5.r.b [ 5.e.e.i.t.e.a.b.g.m.A.x ",
"h D.a.B.a.a.g.h.u.e.e.<./ V r.<.;.<.&.O.O.%._ 4 +   O > ; > ; = = ; > ; > O   + 4 _ %.O.O.&.<.;.<.r.V / <.e.e.u.h.g.a.a.m.a.D.h ",
"i M.n.c.a.a.a.i.i.a.7.2./ M y.4.;.<.&.-.&.} R a   + L ' X.X.) ' ' ) X.X.' L +   a R } &.-.&.<.;.4.y.M / 2.7.a.i.i.a.a.a.z.n.M.v ",
"x G.l.a.g.a.a.t.t.7.e.5.Y M r.2.3.-.&.O.$.O.^ p O L E Q T T T T W T T T Q E L O p ^ O.$.O.&.-.3.2.r.M Y 5.e.7.t.t.a.a.g.a.l.G.B ",
"v Z.m.a.g.u.a.u.i.t.e.4./ V q.2.2.-.2.-.&.$.^ 6 > ' Q K z J H H H H J z K Q ' > 6 ^ $.&.-.2.-.2.2.q.V / 4.e.t.i.u.a.u.g.a.m.Z.B ",
"x V.h.a.f.h.i.q.g.a.7.*.[ b p.2.-.-.%.;.O.O.^ 2 ; X.T z l G G K H G G l z T X.; 2 ^ O.O.;.%.-.-.2.p.b [ *.7.a.g.q.a.h.f.a.h.V.n ",
"h F.a.a.f.a.h.h.a.e.i.<.! V r.2.<.-.;.&.$.$.^ 4 > X.T J G 8 k 7 9 k 8 G J T X.> 4 ^ $.$.&.;.-.<.2.r.V ! <.i.e.a.h.h.a.f.a.a.F.x ",
"x L.g.a.f.c.a.i.a.i.a.6./ x y.6.-.-.%.&.O.| ^ a ; ) T H G k X * X X k G H T ) ; a ^ | O.&.%.-.-.6.y.x / 6.a.i.a.i.a.c.f.a.g.L.b ",
"t L.h.h.h.f.a.g.t.7.e.5./ C p.r.5.<.;.O.&.&.` f = ' W H H 9 X O . * 7 K H T ' = 5 R O.&.%.<.-.3.5.y.M / >.u.t.a.i.a.a.g.h.f.F.b ",
"y F.f.h.g.a.a.i.a.t.u.>./ M y.5.3.-.<.%.&.O.R 5 = ' T H K 7 * @ . X 9 H H W ' = f ` &.&.O.;.<.5.r.p.C / 5.e.7.t.g.a.f.h.h.h.L.x ",
"b L.g.a.f.c.a.i.a.i.a.6./ x y.6.-.-.%.&.O.| ^ a ; ) T H G k X X * X k G H T ) ; a ^ | O.&.%.-.-.6.y.x / 6.a.i.a.i.a.c.f.a.g.L.x ",
"n F.a.a.f.a.h.h.a.e.i.<.! V r.2.<.-.;.&.$.$.^ 4 > X.T J G 8 k 9 7 k 8 G J T X.> 4 ^ $.$.&.;.-.<.2.r.V ! <.i.e.a.h.h.a.f.a.a.F.h ",
"n V.h.a.f.h.i.q.g.a.7.*.[ b p.2.-.-.%.;.O.O.^ 2 ; X.T z l G G H K G G l z T X.; 2 ^ O.O.;.%.-.-.2.p.b [ *.7.a.g.q.i.h.f.a.h.V.x ",
"n Z.m.a.g.u.a.u.i.t.e.4./ V q.2.2.-.2.-.&.$.^ 6 > ' Q K z J H H H H J z K Q ' > 6 ^ $.&.-.2.-.2.2.q.V / 4.e.t.i.u.a.u.g.a.m.Z.i ",
"n G.l.a.g.a.a.t.t.7.e.5.Y M r.2.3.-.&.O.$.O.^ p O L E Q T T T W T T T T Q E L O p ^ O.$.O.&.-.3.2.r.M Y 5.e.7.t.t.a.a.g.a.l.G.y ",
"x M.n.z.a.a.a.i.i.a.7.2./ M y.4.;.<.&.-.&.} R a   + L ' X.X.) ' ' ) X.X.' L +   a R } &.-.&.<.;.4.y.M / 2.7.a.i.i.a.a.a.z.n.M.i ",
"h D.a.m.a.a.g.h.u.e.e.<./ V r.<.;.<.&.O.O.%._ 4 +   O > ; > ; = = ; > ; > O   + 4 _ %.O.O.&.<.;.<.r.V / <.e.e.u.h.g.a.a.m.a.D.y ",
"y A.m.g.b.a.e.t.i.e.e.5.[ b r.5.-.2.&.%.%.$...g 4 a p 6 2 4 a f 5 a 4 2 6 p a 4 g ..$.%.%.&.2.-.5.r.b [ 5.e.e.i.t.e.a.b.g.m.A.r ",
"h G.c.a.l.g.h.e.t.5.e.-.Y e 3.3.5.9.1.9.;.+.+..._ R ^ ^ ^ ^ ^ ` R ^ ^ ^ ^ ^ R _ ..+.+.;.9.1.9.5.3.3.e Y -.e.5.t.e.h.g.l.a.c.G.r ",
"h M.h.h.h.g.e.i.t.e.e.>.( + h m d j d e 3 < +.$.%.} O.$.O.$.| &.O.| $.O.$.O.} %.$.+.< 3 e d j d m h + ( >.e.e.t.i.e.g.h.h.h.N.h ",
"x D.m.h.m.z.s.j.i.t.7.e.@.q #. .( P C N N 3 ;.%.O.&.$.&.O.$.O.&.&.O.$.O.&.$.&.O.%.;.3 N N C P (  .#.q @.e.7.t.i.j.s.z.m.h.m.D.h ",
"b s.S.D.j.j.j.h.j.s.q.r.,.c q.<.%.%.@.O.N e 9.%.O.-.O.-.;.&.&.O.%.&.&.;.-.O.-.O.%.9.e N O.@.%.%.<.q.c ,.r.q.s.j.h.j.j.j.D.S.s.h ",
"% Z { U ~ ] ~ Z V D V h q 0 r.=.-.3.2.@.C d 1.&.&.&.&.2.%.;.%.;.<.%.;.%.2.&.&.&.&.1.d C @.2.3.-.=.r.0 q h V D V Z ~ ] ~ U { Z % ",
"o d.:.@.=.=.@.=.@. .o.I s s q.2.-.;.3.%.P j 9.2.<.<.-.-.-.-.-.<.-.-.-.-.-.-.<.<.2.9.j P %.3.;.-.2.q.s s I o. .@.=.@.=.=.@.:.d.h ",
"S x.g.e.w.e.e.t.7.4.4.8.C c q.3.2.-.-.%.( d 5.-.;.;.3.2.-.<.-.5.3.-.<.-.2.3.;.;.-.5.d ( %.-.-.2.3.q.c C 8.4.4.7.t.e.e.w.e.g.x.& ",
"F H.l.l.a.g.u.h.a.u.7.<.! C y.2.3.2.=.<. .m 3.5.<.4.2.2.2.2.6.r.5.6.2.2.2.2.4.<.5.3.m  .<.=.2.3.2.y.C ! <.7.u.a.h.u.g.a.l.l.H., ",
"# D.g.h.f.g.a.a.t.e.e.5.( M y.y.q.q.r.q.#.h 3.r.r.y.r.q.p.r.y.p.y.y.r.p.q.r.y.r.r.3.h #.q.r.q.q.y.y.M ( 5.e.e.t.a.a.g.f.h.g.D.x ",
"u N.a.a.a.i.a.i.u.t.4.<.Y M M C c s 0 c q + e b V M M V b V x C M x V b V M M V b e + q c 0 s c C M M Y <.4.t.u.i.a.i.a.a.a.N.h ",
"h A.a.h.f.h.u.s.e.t.i.<./ Y ( ! C s q ,.@.( Y [ / / Y / [ ! / / / / ! [ / Y / / [ Y ( @.,.q s C ! ( Y / <.i.t.e.s.u.h.f.h.a.A.h ",
"x H.B.h.z.u.a.s.e.e.t.5.<.<.5.<.8.I h r.e.>.-.5.<.2.5.4.*.<.6.5.>.6.<.*.4.5.2.<.5.-.>.e.r.h I 8.<.5.<.<.5.t.e.e.s.a.u.z.h.B.H.i ",
"n c.c.u.m.a.i.e.e.t.e.t.i.4.e.7.4.o.V q.7.e.e.e.e.7.e.e.7.i.a.e.u.a.i.7.e.e.7.e.e.e.e.7.q.V o.4.7.e.4.i.t.e.t.e.e.i.a.m.u.c.c.v ",
"x J.h.h.a.a.B.e.e.t.t.e.t.t.e.u.4. .D s.t.e.5.e.e.a.7.t.a.e.i.7.t.i.e.a.t.7.a.e.e.5.e.t.s.D  .4.u.e.t.t.e.t.t.e.e.B.a.a.h.h.J.i ",
"x L.h.h.h.f.a.g.t.e.e.e.e.u.t.a.7.@.V j.i.t.t.i.u.i.t.i.g.a.a.t.a.a.a.g.i.t.i.u.i.t.t.i.j.V @.7.a.t.u.e.e.e.e.t.g.a.f.h.h.h.L.x ",
"n V.c.B.g.g.a.u.g.e.e.s.s.i.a.h.t.=.Z h.j.i.e.t.h.i.t.u.q.h.a.g.i.i.h.q.u.t.i.h.t.e.i.j.h.Z =.t.h.a.i.s.s.e.e.g.u.a.g.g.B.c.V.i ",
"B N.g.h.a.a.g.a.a.B.i.a.u.a.a.u.e.@.~ j.s.e.h.e.g.a.a.a.i.h.a.a.a.a.h.i.a.a.a.g.e.h.e.s.j.~ @.e.u.a.a.u.a.i.B.a.a.g.a.a.h.g.N.v ",
"n K.m.v.a.a.a.g.f.a.a.u.h.i.g.g.e.=.] j.z.g.g.a.a.a.a.u.h.a.c.f.a.c.a.h.u.a.a.a.a.g.g.z.j.] =.e.g.g.i.h.u.a.a.f.g.a.a.a.v.m.K.b ",
"b V.C.z.c.a.a.g.h.a.m.z.f.a.f.a.w.=.~ j.m.h.l.b.a.a.g.g.f.f.f.h.g.f.f.f.g.g.a.a.b.l.h.m.j.~ =.w.a.f.a.f.z.m.a.h.g.a.a.c.z.C.V.x ",
"b d.M.M.z.v.h.B.h.h.u.h.h.a.h.l.e.@.U D.h.h.a.g.m.z.a.a.a.a.a.h.h.a.a.a.a.a.z.m.g.a.h.h.D.U @.e.l.h.a.h.h.u.h.h.B.h.v.z.M.M.d.c ",
"% D { M.C.m.g.c.h.h.c.B.a.a.g.l.g.:.{ S.m.h.c.m.a.n.l.m.h.a.g.h.f.g.a.h.m.l.n.a.m.c.h.m.S.{ :.g.l.g.a.a.B.c.h.h.c.g.m.C.M.{ D + ",
"y 0.D d.V.K.N.V.L.J.c.H.A.N.D.H.x.d.Z s.D.M.G.A.D.M.G.Z.V.F.L.L.F.L.F.V.Z.G.M.D.A.G.M.D.s.Z d.x.H.D.N.A.H.c.J.L.V.N.K.V.d.D 0.q ",
"t r - c h h v y h h i i t i % V & v , b y x t y h i y v x v x h h n B n n x v i y h i b c 1 # A , A n b y B x v x n h b n 1 y x "
};
