/* XPM */
static char *_0d851b589564cd4f8180dac71e9c4b8r9Tm41AXMLRacEoI[] = {
/* columns rows colors chars-per-pixel */
"64 64 129 2 ",
"   c #030201",
".  c #0C0906",
"X  c #0E0D09",
"o  c #120C07",
"O  c #130E0A",
"+  c #14110C",
"@  c #19120C",
"#  c #171512",
"$  c #1B1611",
"%  c #1D1914",
"&  c #20170E",
"*  c #22180E",
"=  c #231B14",
"-  c #231E1A",
";  c #281F19",
":  c #272014",
">  c #2B2216",
",  c #25211D",
"<  c #2C231B",
"1  c #2F2819",
"2  c #31261B",
"3  c #342C1D",
"4  c #392D1D",
"5  c #3B311F",
"6  c #272622",
"7  c #292521",
"8  c #2D2924",
"9  c #342D24",
"0  c #3C2F24",
"q  c #342E28",
"w  c #3C3323",
"e  c #36302B",
"r  c #3C332D",
"t  c #3F392C",
"y  c #3C3631",
"u  c #413422",
"i  c #403327",
"p  c #413424",
"a  c #433927",
"s  c #423528",
"d  c #44362B",
"f  c #403828",
"g  c #473928",
"h  c #403A2D",
"j  c #473A2C",
"k  c #433C2F",
"l  c #473F2C",
"z  c #483C2D",
"x  c #403632",
"c  c #453E30",
"v  c #463F3A",
"b  c #4A402D",
"n  c #4D432F",
"m  c #474033",
"M  c #494233",
"N  c #4F4131",
"B  c #494335",
"V  c #4A4536",
"C  c #4C4535",
"Z  c #4D443C",
"A  c #4C4839",
"S  c #4D493A",
"D  c #4F493A",
"F  c #514232",
"G  c #564735",
"H  c #574836",
"J  c #584937",
"K  c #52463F",
"L  c #514C3B",
"P  c #514B3C",
"I  c #524D3D",
"U  c #554F3F",
"Y  c #5A4A38",
"T  c #5E4D3A",
"R  c #5B4D3E",
"E  c #4E4640",
"W  c #534E42",
"Q  c #565141",
"!  c #595241",
"~  c #5D5142",
"^  c #5B5543",
"/  c #5A5544",
"(  c #5D5744",
")  c #5E5947",
"_  c #5B534B",
"`  c #5E5A4A",
"'  c #655847",
"]  c #615D4D",
"[  c #605751",
"{  c #615E52",
"}  c #6B5F54",
"|  c #63604F",
" . c #69624E",
".. c #666252",
"X. c #6B6454",
"o. c #6F6956",
"O. c #6E635E",
"+. c #6D6A5A",
"@. c #706058",
"#. c #746C5C",
"$. c #716E60",
"%. c #747365",
"&. c #7C7162",
"*. c #767668",
"=. c #7B7768",
"-. c #7D7C6D",
";. c #847666",
":. c #847668",
">. c #837D6C",
",. c #897D6D",
"<. c #80806F",
"1. c #848373",
"2. c #8E8272",
"3. c #8B8877",
"4. c #8C8B7B",
"5. c #918473",
"6. c #948D7E",
"7. c #908F80",
"8. c #8F9182",
"9. c #919383",
"0. c #9E9386",
"q. c #9A9B8B",
"w. c #A09384",
"e. c #A09688",
"r. c #A69B8E",
"t. c #A1A292",
"y. c #B3A89A",
"u. c #C7BEB0",
"i. c #CEC1B4",
/* pixels */
". + X + + X + O O X X + + +   +   # + + X X + X + + + + X X + O . + X + + X + + O . X + + O   +   # + + X X O X + + + + X X + O ",
"+ @ @ @ @ . . O @ @ @ @ @ @ @ @ & . . O O @ @ @ @ * . . o @ O @ @ O @ o . . * @ @ @ @ O O . . & @ @ @ @ @ @ @ @ O . . & @ @ @ + ",
"+ @ > 2 2 O @ > > > > > > > > 3 5 O @ > > > > : 1 4 O @ > > > > > > > > @ O 4 1 : > > > > @ O 5 4 > > > > > > > > @ O 2 2 > @ X ",
"+ @ 2 w u @ = 2 3 2 w 5 5 3 5 3 5 @ = 1 3 3 5 w 4 4 + = 1 1 2 w w 2 1 1 = + 4 4 w 5 3 3 1 = @ 5 3 5 3 5 5 w 2 3 2 = @ u w 2 @ + ",
"+ & 2 u g @ = 3 9 a w w w w w 3 p @ = 3 3 w 3 9 p p + = w w w w w w w w = + p p 9 3 w 3 3 = @ p 3 w w w w w a 9 3 = @ g u 2 & X ",
"+ . O @ @ @ > w f w w 3 l w w n z @ < g w w f w b z $ < w w w w w w w w < $ z b w f w w g < @ z n w w l 3 w w f w > @ @ @ O . X ",
"X . @ = = > w F F T z F H G Y G i $ 2 N N G G Y F s @ 0 j J N G G F J j 0 @ s F Y G G N N 2 $ i G Y G H F z T F F w > = = @ . O ",
"X O > 2 3 w F $ $ O $ $ $ % % $ + X + $ % % $ $ + + X + % $ $ $ $ $ $ % + X + + $ $ % % $ + X + $ % % $ $ $ O $ $ F w 3 2 > O X ",
"X @ > 3 9 f F $ d + @ = = < < < < < = < < ; < w @ + $ ; < = < ; ; < = < ; $ + @ w < ; < < = < < < < < = = @ + d $ F f 9 3 > @ O ",
"X @ > 2 a w T O + % < t k c t k C t t h c c C R % = t M k c m t t m c k M t = % R C c c h t t C k t c k t < % + O T w a 2 > @ X ",
"X @ > w w w z $ @ < < B ^ L I D ( I D U U ( ! ' < 9 m Q V D D I I D D V Q m 9 < ' ! ( U U D I ( D I L ^ B < < @ $ z w w w > @ O ",
"X @ > 5 w 3 F $ = t B D P U I  .P U ( D I ( ! ~ = 9 D I D D U ^ ^ U D D I D 9 = ~ ! ( I D ( U P  .U U P D B t = $ F 9 w 5 > @ O ",
"X @ > 5 w l H $ = c ^ P ^ ^ ] I ) W ( ( W ^ I X.- 9 Q ^ I ( ) ^ ( ) ( I ^ Q 9 - X.I ^ W ( ( W ) I ] ^ ^ P ^ k = $ H l w 5 > @ X ",
"X @ > 3 w w G % < c L U ^ ) Q ) / / Q ..) ( ] X.; q D D o.) ( ....( ) o.D D q ; X.] ( ) ..Q / / ) Q ) ^ U L c < % G w w 3 > @ X ",
"  @ > 5 w w Y % < t I U ] Q ) ] W ) ..| ) ) ..#., v D ( ) ( ] ) ) ] ( ) ( D v < #...) ) | ..) W ] ) Q ] U I t < % Y w w 5 > @ + ",
"# @ 4 3 3 n G $ < k D  .I ) ] ..) +...] ` ` #.;.8 q ` ) ] ../ +.+./ ..] ) ` q 8 ;.#.` ` ] ..+.) ..] ) I  .D k < $ G n 3 3 4 @   ",
"# & 5 5 p z i + < C ( P ) / W ) ....X.X.+.] >.o., K X.X.>.+.` +.+.` +.-.X.X.K , o.>.] +.X.X.....) W / ) P ( C < + i z p 5 5 &   ",
"  . O @ @ @ $ X < t I U W / ) +...,.&.2.&.5.5.} , K :.,.,.2.,.2.2.,.2.,.,.:.K , } 5.5.&.2.&.,...+.) / W U I t < X $ @ @ @ O . + ",
"X . @ = = < 2 + = t D ( ( Q ....X.&.e 8 q 8 q 7 # , 7 8 % - q 8 8 q - % 8 7 , # , q 8 q 8 e &.X.....Q ( ( D t = + 2 < = = @ . O ",
"X O > 1 3 g N $ < h U D ( ..| ] X.2.8 y r x x r r r Z @.- - q x x q - - @.Z r r r x x r y 8 2.X.] | ..( D U h < $ N g 3 1 > O + ",
"+ O > 3 3 w N % < c U I W ) ) ` +.&.q r +...+...$.+.=.,.q e } { { } e q ,.=.+.$...+...+.r q &.+.` ) ) W I U c < % N w 3 3 > O + ",
"+ @ > 3 w w G % ; c ( ( ^ ( ) ` ] 5.8 x ..%.-.-.%.1.4.w.q Z #.1.1.#.Z q w.3.1.%.-.-.%...x 8 5.] ` ) ( ^ ( ( c ; % G w w 3 > @ + ",
"X @ > 5 3 f G $ < C ! ! I ] ..#.>.5.q x +.-.%.%.*.<.4.6.e E +.>.>.+.E e 6.4.<.*.%.%.-.+.x q 5.>.#...] I ! ! C < $ G f 3 5 > @ X ",
"O @ : w 9 w Y $ w R ' ~ X.X.#.;.o.} , r ..-.%.*.-.1.6.2.y v 1.4.4.1.v y 2.6.1.-.*.%.-...r , } o.;.#.X.X.~ ' R w $ Y w 9 w : @ + ",
"+ @ 1 4 p b F + @ % < = - ; < 8 , , # r $.%.*.-.1.-.-.0.y _ 1.1.1.1._ y 0.-.-.1.-.*.%.$.r # , , 8 < ; - = < % $ + F b p 4 2 @ X ",
"+ * 4 4 p z s + + = 9 9 9 q v q K K , r +.1.<.1.-.1.1.e.r W -.4.4.-.W r e.3.1.-.1.<.1.+.r , K K q v q 9 9 9 = + + s z p 4 4 * + ",
"+ . O + + $ @ X $ t m D Q D D ` X.:.7 Z =.3.4.6.-.1.7.r.y _ %.4.4.%._ y r.7.1.-.6.4.3.=.Z 7 :.X.` D D Q D m t $ X @ $ + + O . + ",
"+ . @ = = < 0 + ; M Q I ^ D ( ) X.,.8 @.,.w.6.2.0.e.r.y.v _ 1.9.9.1._ v y.r.e.0.2.6.w.,.@.8 ,.X.) ( D ^ I Q M ; + 0 < = = @ . + ",
"+ o > 1 w w j % < k V D I o.) ] >.,.% - q q e y y r y v y [ *.q.q.*.[ y v y r y y e q q - % ,.>.] ) o.I D V k < % j w w 1 > o + ",
"X @ > 1 w w J $ = c D D ( ) ( ..+.2.- - e Z E v _ W _ _ [ O.t.8.8.t.O.[ _ _ W _ v E Z e - - 2.+...( ) ( D D c = $ J w w 1 > @ X ",
"+ O > 2 w w N $ < m D U ) ( ] / ` ,.q q } $.+.1.1.-.%.1.*.t.i.u.u.i.t.*.1.%.-.1.1.+.#.} q q ,.` / ] ( ) U D m < $ N w w 2 > O + ",
"X @ > w w w G $ ; t I ^ ^ ..) +.+.2.8 x { 1.>.4.1.4.4.9.q.8.u.6 , u.8.q.9.4.4.1.4.>.1.{ x 8 2.+.+.) ..^ ^ I t ; $ G w w w > @ X ",
". @ > w w w G $ ; t I ^ ^ ..) +.+.2.8 x { 1.>.4.1.4.4.9.q.8.u.6 , u.8.q.9.4.4.1.4.>.1.{ x 8 2.+.+.) ../ ^ I t ; $ G w w w > @ O ",
"+ O > 2 w w N $ < m D U ) ( ] / ` ,.q q } #.+.1.1.-.%.1.*.t.i.u.u.i.t.*.1.%.-.1.1.+.#.} q q ,.` / ] ( ) U D m < $ N w w 2 > O + ",
"+ @ > 1 w w J $ = c D D ( ) ( ..+.2.- - e Z E v _ W _ _ [ O.t.8.8.t.O.[ _ _ W _ v E Z e - - 2.+...( ) ( D D c = $ J w w 1 > @ X ",
"+ o > 1 w w j % < k V D I o.) ] >.,.% - q q e y y r y v y [ *.q.q.*.[ y v y r y y e q q - % ,.>.] ) o.I D V k < % j w w 1 > o + ",
"+ . @ = = < 0 + ; M Q I ^ D ( ) X.,.8 @.,.w.6.3.0.e.r.y.v _ 1.9.9.1._ v y.r.e.0.2.6.w.,.@.8 ,.X.) ( D ^ I Q M ; + 0 < = = @ . X ",
"+ . O + + $ @ X $ t m D Q D D ` X.:.7 Z =.3.4.6.-.3.7.r.y _ %.4.4.%._ y r.7.1.-.6.4.3.=.Z 7 :.X.` D D Q D m t $ X @ $ + + O . X ",
"X * 4 4 p z s + + = 9 9 9 q v q K K - r +.1.1.1.-.1.1.e.r W -.4.4.-.W r e.1.1.-.1.<.1.+.r , K K q v q 9 9 9 = + + s z p 4 4 * + ",
"X @ 1 4 p b F + @ % < % - ; , 8 , , # r $.%.*.-.1.-.-.0.y _ 1.1.1.1._ y 0.-.-.1.-.*.%.$.r # , , 8 < ; - - < % @ + F b p 4 1 @ X ",
"X @ : w 9 w Y $ w R ' ~ X.X.#.;.o.} , r ..-.%.*.-.1.6.2.y v 1.4.4.1.v y 2.6.1.-.*.%.-...r , } o.;.#.X.X.~ ' R w $ Y w 9 w : @ O ",
"X @ > 5 3 f G $ < C ! ! I ] ..#.>.5.q x +.-.%.%.*.<.4.6.e E +.>.>.+.E e 6.4.<.*.%.%.-.+.x q 5.>.#...] I ! ! C < $ G f 3 5 > @ X ",
"X @ > 3 w w G % ; c ( ( ^ ( ) ` ] 5.8 x ..%.-.-.%.1.3.w.q Z #.1.1.#.Z q w.3.1.%.-.-.%...x 8 5.] ` ) ( ^ ( ( c ; % G w w 3 > @ O ",
"X O > 3 3 w N % < c U I W ) ) ` +.&.q r +...+...$.+.=.,.q e } { { } e q ,.=.+.$...+...+.r q &.+.` ) ) W I U c < % N w 3 3 > O O ",
"X O > 1 3 g N $ < h U D ( ..| ] X.2.8 y r x x r r r Z @.- - q x x q - - @.Z r r r x x r y 8 2.X.] | ..( D U h < $ N g 3 1 > O X ",
". . @ = = < 2 + = t D ( ( Q ....X.&.e 8 q 8 q , # , 7 8 % - q 8 8 q - % 8 7 , # , q 8 q 8 e &.X.....Q ( ( D t = + 2 < = = @ . X ",
"  . O @ @ @ $ X < t I U W / ) +...,.&.2.&.5.5.} , K :.,.,.2.,.2.2.,.2.,.,.:.K , } 5.5.&.2.&.,...+.) / W U I t < X $ @ @ @ O . + ",
"# & 5 5 p z i + < C ( P ) / W ` ....X.X.+.] >.o., K X.X.>.+.` +.+.` +.>.X.X.K , o.>.] +.X.X.....) W / ) P ( C < + i z p 5 5 &   ",
"# @ 4 3 3 n G $ < k D  .I ) ] ..) +...] ` ` #.;.8 q ` ) ] ../ +.+./ ..] ) ` q 8 ;.#.` ` ] ..+.) ..] ) I  .D k < $ G n 3 3 4 @   ",
"  @ > 5 w w Y % < t I U ] Q ) ] W ) ..| ) ) ..#.< v D ( ) ( ] ) ) ] ( ) / D v < #...) ) | ..) W ] ) Q ] U I t < % Y w w 5 > @ + ",
"X @ > 3 w w G % < c I U ^ ) Q ) / / Q ..) ( ] X.; q D D o.) ( ....( ) o.D D q ; X.] ( ) ..Q / / ) Q ) ^ U L c < % G w w 3 > @ + ",
"X @ > 5 w l H $ = k ( P ^ ^ ] I ) W ( ( W ^ I X.- 9 Q ^ I ( ) ^ ^ ) ( I ( Q 9 - X.I ^ W ( ( W ) I ] ^ ^ P ^ k = $ H l w 5 > @ + ",
"+ @ > 5 w 3 F $ = t B D P U U  .P U ( D I ( ! ~ = 9 D I D D U ^ ^ U D D I D 9 = ~ ! ( I D ( U P  .U W P D B t = $ F 3 w 5 > @ + ",
"O @ > w w w z $ @ < < B ^ L I D ( I D U U ( ! ' < 9 m Q V D D I I D D V Q m 9 < ' ! ( U U D I ( D I L ^ B < < @ $ z w w w > @ + ",
"X @ > 2 a w T O + % < t k c t k C t t h c c C R % = t M k c m t t m c k M t = % R C c c h t t C k t c k t < % + O T w a 2 > @ X ",
"O @ > 3 9 f F $ d + @ = = < < < < < = < < ; < w @ + $ ; < = < ; ; < = < ; $ + + w < ; < < = < < < < < = = @ + d $ N t 9 3 > @ + ",
"+ O > 1 3 w F $ $ O $ $ $ % % $ + X + $ % % $ $ + + X + % $ $ $ $ $ $ % + X + + $ $ % % $ + X + $ % % $ $ $ O $ $ F w 3 2 > O X ",
"+ . @ % = > w F F T z F H G Y G i $ 2 N N G G Y F s @ 0 j J N G G N J j 0 @ s F Y G G N N 2 $ i G Y G H F z T F F w > = % @ . + ",
"+ . O @ @ @ > w f w w 3 l w w n z @ < g w w f w b z $ < w w w w w w w w < $ z b w f w w g < @ z n w w l 3 w w f w > @ @ @ O . + ",
"+ & 2 u g @ = 3 9 a w w w w w 3 p @ = 3 3 w 3 9 p p + = w w w w w w w w = + p p 9 3 w 3 3 = @ p 3 w w w w w a 9 3 = @ g u 2 @ + ",
"+ @ 2 w u @ = 2 3 2 w 5 5 3 5 3 5 @ = 1 3 3 5 w 4 4 + = 1 1 2 w w 2 1 1 = + 4 4 w 5 3 3 1 = @ 5 3 5 3 5 5 w 2 3 2 = @ u w 2 @ + ",
"X @ > 2 2 O @ > > > > > > > > 4 5 O @ > > > > : 1 4 O @ > > > > > > > > @ O 4 1 : > > > > @ O 5 4 > > > > > > > > @ O 2 2 > @ X ",
"+ @ @ @ @ . . O @ @ @ @ @ @ @ @ & . . O O @ @ @ @ * . . o @ O @ @ O @ o . . * @ @ @ @ O O . . & @ @ @ @ @ @ @ @ O . . & @ @ @ + ",
"X + + + + X + X O X X + X +   #   # + + X + X + O + X + + + + X X + + + + X + X O X X + X O   #   # + + X + X + O O X + + + + X "
};
