/* XPM */
static char *_f4b6312c2a4458eb70619611c4e436fVv6padXmTOID21I3[] = {
/* columns rows colors chars-per-pixel */
"32 32 136 2 ",
"   c None",
".  c #030306",
"X  c #060709",
"o  c #07090E",
"O  c #090A0D",
"+  c #0C0E11",
"@  c #0E1013",
"#  c #111316",
"$  c #131519",
"%  c #161A1E",
"&  c #191B1E",
"*  c #171B20",
"=  c #1A1E23",
"-  c #1D2125",
";  c #1E2229",
":  c #212327",
">  c #22252A",
",  c #26292D",
"<  c #292B2E",
"1  c #262B31",
"2  c #2A2D32",
"3  c #2D3035",
"4  c #2E3339",
"5  c #313235",
"6  c #32363B",
"7  c #34383D",
"8  c #3A3B3D",
"9  c #363A40",
"0  c #393E43",
"q  c #3D4146",
"w  c #3F4349",
"e  c #414243",
"r  c #42464B",
"t  c #45494E",
"y  c #4A4B4C",
"u  c #474B50",
"i  c #494D52",
"p  c #4E5155",
"a  c #515356",
"s  c #555759",
"d  c #54565A",
"f  c #54565B",
"g  c #55575B",
"h  c #535559",
"j  c #55585B",
"k  c #57595C",
"l  c #57595D",
"z  c #575A5D",
"x  c #57595D",
"c  c #5A5B5B",
"v  c #585A5D",
"b  c #595A5D",
"n  c #595B5E",
"m  c gray37",
"M  c #595B5E",
"N  c #5C5E61",
"B  c #5D5E61",
"V  c #5D5F61",
"C  c #5E5F62",
"Z  c #5D5E61",
"A  c #5F6162",
"S  c #5F6163",
"D  c #5F6165",
"F  c #5F6062",
"G  c #606162",
"H  c #616262",
"J  c #616263",
"K  c #616365",
"L  c #626366",
"P  c #626466",
"I  c #636566",
"U  c #636567",
"Y  c #646566",
"T  c #646667",
"R  c #676767",
"E  c #626466",
"W  c #656668",
"Q  c #666768",
"!  c #666769",
"~  c #666769",
"^  c #676869",
"/  c #67686A",
"(  c #676869",
")  c #68696A",
"_  c #68696B",
"`  c #696A6C",
"'  c #6A6A6C",
"]  c #6A6B6C",
"[  c #6A6B6D",
"{  c #6B6C6D",
"}  c #6C6C6D",
"|  c #6C6C6E",
" . c #6D6D6E",
".. c #6D6E6F",
"X. c gray43",
"o. c #6E6F6F",
"O. c #6B6C6D",
"+. c #6D6E70",
"@. c #6E6E70",
"#. c #6F6F70",
"$. c #6F6F71",
"%. c #6D6F72",
"&. c #6F6F70",
"*. c #6F7070",
"=. c #6F7070",
"-. c gray44",
";. c #707071",
":. c #717171",
">. c #727271",
",. c #717272",
"<. c #727272",
"1. c #727273",
"2. c gray45",
"3. c #747474",
"4. c #747475",
"5. c #767676",
"6. c #767677",
"7. c #737373",
"8. c #787877",
"9. c #777879",
"0. c gray47",
"q. c #797979",
"w. c gray48",
"e. c #7B7B7B",
"r. c #7B7B7C",
"t. c #7B7C7C",
"y. c #7C7C7C",
"u. c gray49",
"i. c #7D7E7F",
"p. c #7E7E7E",
"a. c #7A7A7A",
"s. c #7F8081",
"d. c #808080",
"f. c #868687",
"g. c #818182",
"h. c #89898A",
/* pixels */
"    3 3 6   $ % = > > =   O ; = # O , #     % : > , > > #       ",
"1 %.i.l t > 3 9 q t i h 8 3 C 8 h r i 0 # ; 0 t a i p t , $ %   ",
"5 4.-.I r ; w i l I ' %.S y %.a p g C u 1 9 a _ 4...' i ; ..l   ",
"= p a u 6 3 u h g g D -.' 2 _ *.^ t u t > r -.W %.-.0.S $ y u X ",
"+ 2 r : % 2 t W ^ C i.0.y % t { 4...b > ; 8 4...i.f.8 > 9 ; % = ",
"@ > j W T 5 q %.i.C ..0.$ , % q 0.a ; 3 = = q y 5 = ; u t t 0 ; ",
"# 7 0 m d.' 3 2 r.h.S = 6 t 7 9 0 0 6 7 6 $ 3 0 0 3 H ..{ t q , ",
"> %.' t i i t $ + = 6 t w i y -.l q 9 9 ; t u u r 0 4.-.g a p 2 ",
": r r 7 u u u : 4 3 u i p h H 4.p t i 9 6 u t r 6 c %.b t l i , ",
"O 3 9 i u u 9 ; 6 2 i T -.4.W ..u g ..i 4 t p I %.y -.b ' K h X ",
"$ ; q r w 6 ; 6 9 2 p ..{ -.T t.{ -.-.K 8 -.4.-.-.W 5 p H ..,   ",
"  ; % @ = 9 u u w 6 h 0.0.d.> ..s.i.0.m # _ -.K %.-.-.y * $ %   ",
"      2 t p p i 9 r 7 7 > 3 7 1 > > q < = 4.-.-...0...= 6 4 2 ; ",
"    4 i S ....p u b t 5 6 t r t i 9.4.4.q 2 b 0...e % 9 r 7 7 : ",
"  2 t r d.0...a *.' 9., u u i i *.-.S ..0.9 0 7 3 4 6 t t q u , ",
"# w a i { -.^ -.-.0.t.> r 0 9 r l -.j b 4.9 h b i 2 i u w t t , ",
": t h -.q 0.-...d.-.. $ 3 q r S ..W q p -.0 ..-.p > t u i b t : ",
", t p -._ b 9.0.9 $ h & r i u a W ^ p i 6 t ..n q 2 r u { I h = ",
"% r i -.....g < 9 , g > 3 u u b %.2.^ b 6 _ b b a 1 - q _ ..2 + ",
"@ 6 i 0.-.K 4.8 ^ t 9 i 3 , q i a e : * $ -.r...5 = > t q 7 9 $ ",
"  % q _ ..0.C y ^ -.' i < 1 t t t t t * t g q t r < _ C t t 0 & ",
"  ; = p 0.' < 4.r.4.l u 5 ..l t u i ..y -.-.p w q t -.^ p u q = ",
"  ; 0 , 6 O 2 4.T n a i 2 ..4.I t a ..8 i.d...r 6 i -.{ h i t & ",
"# 9 u i i 0 % e a i 0 2 8 4.W l t i W y W -.4.N q 5 4.-.g u w + ",
"; u K 8.0.l 9 % $ o & @ & ' I n u l -.q I ' { b r 3 K -.b i 4   ",
"< i C j p p t 4 + 9 9 6 7 0.-.b u n n X 9 w r q 7 4 = _ b w =   ",
"; i q 6 6 9 i 7 = t i 3 C 8 t q 4 : r 2.I + $ 1 5 & 3 , 3 >     ",
"O t u t g S i 6 = l d.t C t % ; % ..C I p q % = $ s -.w r 9 &   ",
"  : i i r.I q 6 . D K I 0.2 = $ # 3 p r w 0 @ g 6 ' ..r C W 7   ",
"    7 t b r 7 $ ; p d.-.9 . -.W 0 1 7 t 1 3 > i 2 I ..u S _ 6   ",
"    # 2 9 , $ = 5 = 2 = # _ H h r 9 # 9 6 > ; 0 > 6 { g C _ 4   ",
"      O X O   X &       # , 2 2 < & X         X X O @ % 8 * +   "
};
